<svg width="112" height="44" viewBox="0 0 112 44" fill="none" xmlns="http://www.w3.org/2000/svg">
<path fill-rule="evenodd" clip-rule="evenodd" d="M59.6083 27.9329C59.6083 29.5866 60.8754 30.8518 62.8921 30.8518C66.1995 30.8518 69.2922 27.9689 69.2922 25.1051V23.8447L62.8921 25.1964C60.4317 25.6804 59.6083 26.3599 59.6083 27.9329ZM64.3516 12.791C69.4337 12.791 73.1083 15.978 73.1083 20.8181V33.5883C73.1083 33.7898 72.945 33.9532 72.7435 33.9532H69.6421C69.4406 33.9532 69.2773 33.7898 69.2773 33.5883V31.0343C67.9774 32.9052 66.1362 34.3181 62.3448 34.3181C58.5534 34.3181 55.7773 31.5034 55.7773 28.1154C55.7773 24.929 57.6736 22.9421 62.3448 22.0951L69.0948 20.8181V20.6356C69.0948 17.9736 66.9714 16.4397 63.9867 16.4397C62.3739 16.4397 60.6694 16.8527 59.3167 17.7256C59.1668 17.8223 58.9686 17.8067 58.8426 17.6807L56.9566 15.7947C56.8106 15.6487 56.8144 15.41 56.9709 15.2753C58.9276 13.5914 61.4799 12.791 64.3516 12.791Z" fill="currentColor"/>
<path fill-rule="evenodd" clip-rule="evenodd" d="M50.3041 16.9865H45.196H40.0879V7.86486C40.0879 7.66336 40.2512 7.5 40.4528 7.5H43.919C44.1205 7.5 44.2838 7.66336 44.2838 7.86487V13.5203H50.3041C50.5056 13.5203 50.669 13.6836 50.669 13.8851V16.6216C50.669 16.8231 50.5056 16.9865 50.3041 16.9865ZM46.473 33.9527C42.4595 33.9527 40.0879 31.7635 40.0879 27.0203V16.9865H40.8176L44.0491 19.4676C44.1962 19.5699 44.2838 19.739 44.2838 19.9182V26.6554C44.2838 29.2095 45.196 30.1216 47.3852 30.1216H51.0338C51.2353 30.1216 51.3987 30.285 51.3987 30.4865V33.5878C51.3987 33.7893 51.2353 33.9527 51.0338 33.9527H46.473Z" fill="currentColor"/>
<path d="M28.0475 13.7028C28.0475 13.5013 27.8842 13.3379 27.6826 13.3379H24.2164C24.0149 13.3379 23.8516 13.5013 23.8516 13.7028V33.5879C23.8516 33.7894 24.0149 33.9528 24.2164 33.9528H27.6826C27.8842 33.9528 28.0475 33.7894 28.0475 33.5879V24.8311C28.0475 20.2703 30.784 16.9865 33.7029 16.9865C34.071 16.9865 34.3255 16.9865 34.6151 16.9865C34.8166 16.9865 34.9799 16.8232 34.9799 16.6217V13.7028C34.9799 13.5013 34.8165 13.3379 34.615 13.3379C34.4406 13.3379 34.3454 13.3379 33.7029 13.3379C31.6962 13.3379 28.9597 14.4325 28.0475 16.6217V13.7028Z" fill="currentColor"/>
<path fill-rule="evenodd" clip-rule="evenodd" d="M4.33108 27.9329C4.33108 29.5866 5.59816 30.8518 7.61487 30.8518C10.9223 30.8518 14.0149 27.9689 14.0149 25.1051V23.8447L7.61487 25.1964C5.15448 25.6804 4.33108 26.3599 4.33108 27.9329ZM9.07433 12.791C14.1564 12.791 17.8311 15.978 17.8311 20.8181V33.5883C17.8311 33.7898 17.6677 33.9532 17.4662 33.9532H14.3649C14.1634 33.9532 14 33.7898 14 33.5883V31.0343C12.7002 32.9052 10.859 34.3181 7.06757 34.3181C3.27616 34.3181 0.5 31.5034 0.5 28.1154C0.5 24.929 2.39637 22.9421 7.06757 22.0951L13.8176 20.8181V20.6356C13.8176 17.9736 11.6942 16.4397 8.70946 16.4397C7.09666 16.4397 5.3921 16.8527 4.03941 17.7256C3.88958 17.8223 3.69139 17.8067 3.5653 17.6807L1.67932 15.7947C1.5333 15.6487 1.5371 15.41 1.69362 15.2753C3.65038 13.5914 6.20268 12.791 9.07433 12.791Z" fill="currentColor"/>
<path d="M109 7.5C110.653 7.5 112 8.84694 112 10.5C112 12.1531 110.653 13.5 109 13.5C107.408 13.5 106 12.1531 106 10.5C106 8.84694 107.408 7.5 109 7.5Z" fill="currentColor"/>
<path fill-rule="evenodd" clip-rule="evenodd" d="M87.6083 27.9329C87.6083 29.5866 88.8754 30.8518 90.8921 30.8518C94.1995 30.8518 97.2922 27.9689 97.2922 25.1051V23.8447L90.8921 25.1964C88.4317 25.6804 87.6083 26.3599 87.6083 27.9329ZM92.3516 12.791C97.4337 12.791 101.108 15.978 101.108 20.8181V33.5883C101.108 33.7898 100.945 33.9532 100.744 33.9532H97.6421C97.4406 33.9532 97.2773 33.7898 97.2773 33.5883V31.0343C95.9774 32.9052 94.1362 34.3181 90.3448 34.3181C86.5534 34.3181 83.7773 31.5034 83.7773 28.1154C83.7773 24.929 85.6736 22.9421 90.3448 22.0951L97.0948 20.8181V20.6356C97.0948 17.9736 94.9714 16.4397 91.9867 16.4397C90.3739 16.4397 88.6694 16.8527 87.3167 17.7256C87.1668 17.8223 86.9686 17.8067 86.8426 17.6807L84.9566 15.7947C84.8106 15.6487 84.8144 15.41 84.9709 15.2753C86.9276 13.5914 89.4799 12.791 92.3516 12.791Z" fill="currentColor"/>
<path d="M111.1 17.3024C111.1 17.1009 110.937 16.9375 110.735 16.9375H107.269C107.068 16.9375 106.904 17.1009 106.904 17.3024V33.5879C106.904 33.7894 107.068 33.9528 107.269 33.9528H110.735C110.937 33.9528 111.1 33.7894 111.1 33.5879C111.1 17.3024 111.1 17.3024 111.1 17.3024Z" fill="currentColor"/>
</svg>
